<svg width="80" height="80" viewBox="0 0 80 80" fill="none" xmlns="http://www.w3.org/2000/svg">
<path d="M16.0497 3.82193C16.3824 4.0913 15.8543 4.54024 15.5215 4.28672C14.1958 3.23039 12.8807 2.12652 11.555 1.04378C11.2275 0.774412 11.7557 0.320189 12.0831 0.57899C13.4088 1.65645 14.7345 2.73391 16.0497 3.82193ZM13.1923 14.1159C8.91943 14.681 4.64656 15.2303 0.373691 15.8219C0.313695 15.834 0.256677 15.8579 0.205893 15.892C0.155109 15.9262 0.111553 15.97 0.0777117 16.021C0.0438708 16.0721 0.0204072 16.1292 0.00866163 16.1893C-0.00308392 16.2494 -0.00288198 16.3112 0.00925599 16.3712C0.021394 16.4312 0.0452305 16.4882 0.0794041 16.539C0.113578 16.5898 0.157419 16.6333 0.208426 16.6672C0.259432 16.701 0.316605 16.7245 0.376679 16.7362C0.436754 16.7479 0.498554 16.7477 0.55855 16.7356C4.82614 16.1441 9.08316 15.505 13.3455 14.8817C13.3975 14.8736 13.4474 14.855 13.4921 14.827C13.5368 14.7991 13.5753 14.7624 13.6055 14.7192C13.6356 14.6759 13.6567 14.6271 13.6674 14.5755C13.6782 14.5239 13.6784 14.4707 13.6681 14.419C13.6578 14.3673 13.6371 14.3183 13.6073 14.2748C13.5775 14.2313 13.5393 14.1943 13.4948 14.166C13.4504 14.1377 13.4007 14.1186 13.3487 14.11C13.2967 14.1014 13.2435 14.1034 13.1923 14.1159V14.1159ZM14.6289 24.1933C12.368 24.8806 10.1989 25.8401 8.16943 27.0507C7.5726 27.4046 8.04795 28.2972 8.6395 27.9327C10.5745 26.7309 12.6408 25.7545 14.7979 25.0225C15.3314 24.843 15.2046 24.0243 14.6289 24.1933ZM70.7783 4.61418C72.023 3.05692 73.5585 1.75641 75.2994 0.784975C75.3527 0.763934 75.401 0.731862 75.441 0.690864C75.4811 0.649866 75.512 0.600866 75.5318 0.547077C75.5516 0.493288 75.5598 0.435925 75.5558 0.378749C75.5519 0.321573 75.5359 0.265875 75.5089 0.215306C75.482 0.164737 75.4446 0.120438 75.3993 0.0853161C75.354 0.0501939 75.3018 0.0250407 75.2462 0.011505C75.1905 -0.00203067 75.1325 -0.00364263 75.0762 0.00677429C75.0198 0.0171912 74.9663 0.0394013 74.9191 0.0719499C73.0261 1.08355 71.3711 2.48817 70.0653 4.19165C69.722 4.65644 70.4561 5.01031 70.7783 4.61418ZM79.3293 16.1652C76.2026 17.1898 73.0758 18.2145 69.9702 19.3025C69.479 19.4768 69.5899 20.2374 70.1234 20.0789C73.2924 19.1229 76.3927 18.1036 79.5142 17.0842C80.0846 16.8888 79.9473 15.9645 79.3293 16.1652V16.1652ZM68.4121 29.9292C67.9156 29.8394 67.5882 30.563 68.1322 30.7162C70.2723 31.3708 72.289 32.3756 74.1005 33.6898C74.5283 33.9803 75.1568 33.3148 74.7501 32.9345C72.9546 31.3681 70.7613 30.3281 68.4121 29.9292ZM67.3294 69.1509C67.5935 73.3762 62.6709 74.8656 59.3012 75.1033C55.9315 75.341 49.6622 74.8287 49.0443 70.5347C48.4738 66.5787 52.9051 64.7671 56.0953 64.6034C56.2801 64.6034 56.2854 64.878 56.0953 64.9044C53.0847 65.3639 47.3647 67.9519 50.3858 71.8656C52.1816 74.1896 56.2326 74.4114 58.9051 74.2688C61.884 74.1104 67.4033 72.7266 66.2572 68.5329C65.2009 64.746 60.5424 64.6931 57.3998 64.746C57.5794 66.4748 57.7555 68.1966 57.928 69.9114C57.9755 70.4079 57.1727 70.6403 57.0935 70.1121C55.6305 59.9079 53.9932 49.4555 53.4914 39.1457C49.0707 39.6739 47.1534 33.0031 46.1552 29.8025C43.9316 22.8042 42.7855 15.542 41.9034 8.28494C41.5448 8.04174 41.2737 7.68978 41.1301 7.28091C40.9865 6.87205 40.978 6.42788 41.1059 6.01383C41.8401 2.90821 47.0214 1.95222 49.6411 1.9311C49.6818 1.92751 49.7229 1.93364 49.7608 1.94899C49.7988 1.96435 49.8325 1.98848 49.8593 2.01941C49.8861 2.05033 49.9052 2.08718 49.915 2.12692C49.9248 2.16665 49.9251 2.20815 49.9157 2.248C50.0291 2.11744 50.1875 2.03444 50.3594 2.0156C52.2185 1.80434 56.84 2.47511 56.8558 5.02615C56.9021 5.05251 56.9424 5.08818 56.9743 5.13091C57.0061 5.17363 57.0287 5.22249 57.0407 5.27439C58.8576 12.2145 59.0319 19.762 58.5777 26.887C58.3611 30.2936 58.7784 37.4503 54.5266 38.908C54.3004 38.9839 54.0692 39.0439 53.8347 39.0876C55.4509 47.2795 56.4756 55.7249 57.3312 64.0858C61.0706 63.6368 67.0283 64.3181 67.3294 69.1509ZM47.8664 8.36417C49.8774 8.4625 51.8794 8.03661 53.6763 7.12826C55.1234 6.31488 55.9263 4.69341 54.1516 3.78496C52.937 3.21457 51.5814 3.01435 50.2537 3.20926C49.752 3.2568 49.6199 2.82898 49.7678 2.46983C49.7157 2.51282 49.6506 2.537 49.583 2.53849C47.6499 2.60715 44.3013 3.10363 43.0126 4.79376C40.208 8.50149 46.1341 8.34832 47.8664 8.36417ZM42.3312 8.54374C42.7062 10.9522 43.3876 15.1986 44.3753 19.7356C48.9175 21.3201 53.2379 21.3993 57.6481 19.3289H57.6745C57.5002 15.056 56.9192 10.8782 56.3382 6.62122C54.7537 9.01381 50.1376 9.49973 47.7819 9.44691C46.5619 9.40994 43.9263 9.38881 42.3365 8.54374H42.3312ZM54.7326 37.7831C56.9984 36.5419 57.0196 32.9345 57.2361 30.7373C57.5002 28.0542 57.6745 25.3658 57.7167 22.6775C57.7167 21.9328 57.7167 21.1881 57.7167 20.4539C53.5654 22.3764 48.5214 22.4504 44.4809 20.2162C46.5936 29.7708 50.0266 40.3658 54.7326 37.7831ZM51.4738 31.5718C51.3259 31.181 50.6604 31.2391 50.4914 31.5718C50.4203 31.6789 50.3908 31.8083 50.4083 31.9357C50.4258 32.0631 50.4891 32.1797 50.5865 32.2637C50.6826 32.3493 50.8048 32.3998 50.9332 32.4072C51.0616 32.4145 51.1888 32.3782 51.294 32.3042C51.3992 32.2302 51.4763 32.1228 51.5128 31.9994C51.5493 31.876 51.543 31.744 51.4949 31.6246L51.4738 31.5718ZM52.7203 33.769C52.5301 33.769 52.4932 34.0595 52.7203 34.0595C52.9474 34.0595 52.9316 33.769 52.7309 33.769H52.7203ZM54.7537 31.6563C54.2678 31.6563 54.1727 32.4063 54.6956 32.4063C55.2185 32.4063 55.2608 31.6774 54.7643 31.6774L54.7537 31.6563ZM53.5337 30.4627C53.3277 30.4627 53.2907 30.7796 53.5337 30.7796C53.7766 30.7796 53.7608 30.4838 53.5442 30.4838L53.5337 30.4627ZM54.7537 29.0789C54.9492 29.0789 54.9808 28.7831 54.7537 28.7831C54.5266 28.7831 54.5583 29.1 54.7643 29.1L54.7537 29.0789ZM52.2449 28.0225C51.7168 28.0225 51.5953 28.8676 52.1763 28.8676C52.7573 28.8676 52.8365 28.0172 52.2555 28.0172L52.2449 28.0225ZM50.5971 29.0789C50.2643 29.0789 50.2009 29.607 50.5601 29.607C50.9192 29.607 50.9615 29.0789 50.6076 29.0789H50.5971ZM48.759 27.9539C48.4104 27.9539 48.3418 28.482 48.7168 28.482C49.0918 28.482 49.1393 27.9539 48.7696 27.9539H48.759ZM50.6763 26.1898H50.7555C50.8208 26.1745 50.8823 26.1461 50.9363 26.1064C50.9903 26.0666 51.0357 26.0164 51.0697 25.9587C51.1038 25.9009 51.1258 25.8369 51.1344 25.7704C51.143 25.7039 51.1381 25.6364 51.1199 25.5718C51.095 25.5106 51.0572 25.4555 51.009 25.4102C50.9608 25.3649 50.9034 25.3306 50.8407 25.3095C50.778 25.2885 50.7116 25.2812 50.6458 25.2882C50.5801 25.2952 50.5166 25.3162 50.4597 25.35L50.3858 25.3975C50.2935 25.4471 50.2202 25.5257 50.1772 25.6212C50.1342 25.7168 50.124 25.8238 50.1481 25.9257C50.1875 26.03 50.2652 26.1153 50.3652 26.1643C50.4653 26.2134 50.5803 26.2225 50.6868 26.1898H50.6763ZM53.3171 25.6194H53.2643C53.1856 25.6382 53.1146 25.6807 53.0607 25.7411C53.0069 25.8016 52.9729 25.877 52.9632 25.9574V26.0049C52.9643 26.0932 52.993 26.1788 53.0453 26.2499C53.0975 26.321 53.1708 26.374 53.2546 26.4014C53.3385 26.4288 53.4289 26.4292 53.513 26.4026C53.5972 26.376 53.6709 26.3238 53.7238 26.2532C53.7732 26.19 53.8026 26.1134 53.8081 26.0333C53.8136 25.9532 53.7949 25.8733 53.7545 25.804C53.7142 25.7346 53.6539 25.6789 53.5816 25.6442C53.5093 25.6094 53.4282 25.597 53.3488 25.6088L53.3171 25.6194ZM54.6481 27.3253L54.7115 27.2937C55.1129 27.0877 54.4791 26.6123 54.384 27.1035V27.1669C54.3734 27.3201 54.5689 27.3834 54.6798 27.3253H54.6481ZM55.8101 25.931C56.1798 25.931 56.2484 25.3606 55.8523 25.3606C55.4562 25.3606 55.4509 25.931 55.8418 25.931H55.8101ZM29.6447 43.4767C29.6447 51.8164 29.0426 60.2988 28.3031 68.665C31.789 68.9396 37.002 70.3656 37.1763 74.6702C37.3401 78.8374 32.951 80.1367 29.5443 79.9888C26.1377 79.841 19.5778 78.4624 18.981 74.179C18.3419 69.7213 23.6764 68.4643 27.0039 68.8973C27.194 68.9238 27.1095 69.209 26.9405 69.1984C25.0972 69.1245 23.1799 69.1667 21.606 70.2547C19.2768 71.8709 19.1078 74.6596 21.3102 76.429C23.7187 78.3674 27.5003 79.1702 30.5214 79.0698C33.6588 78.9589 38.0584 76.6984 35.6447 72.8744C34.0602 70.334 30.9862 69.7741 28.2503 69.2988C28.0972 71.0311 27.9387 72.7635 27.7803 74.4853C27.7327 74.9871 26.9088 75.0135 26.9352 74.4853C27.4634 64.1967 27.8384 53.6333 29.3067 43.4239C24.7486 43.0911 24.194 35.6545 23.8296 32.3007C23.0637 25.1916 23.3014 18.0402 23.8296 10.9311C23.4919 10.6163 23.2741 10.194 23.2134 9.73632C23.1527 9.27869 23.2529 8.81418 23.4968 8.42226C24.9546 5.6177 30.1253 5.69692 32.6552 6.15643C32.689 6.15899 32.7217 6.16906 32.7511 6.18591C32.7804 6.20275 32.8057 6.22595 32.8249 6.25379C32.8441 6.28164 32.8569 6.31343 32.8623 6.34684C32.8676 6.38026 32.8655 6.41445 32.8559 6.44692C32.9612 6.37975 33.0853 6.34826 33.2098 6.35713C35.0478 6.48389 39.6006 8.01029 39.1253 10.5349C39.1617 10.562 39.1916 10.597 39.2127 10.6372C39.2337 10.6775 39.2453 10.7219 39.2468 10.7673C39.6746 17.5173 38.5813 24.4997 36.9704 31.012C36.0989 34.5876 35.1904 42.5841 30.5109 43.4027C30.2249 43.4527 29.935 43.4774 29.6447 43.4767V43.4767ZM25.3771 10.8571C26.3542 11.718 28.8841 12.0455 30.1306 12.262C31.9422 12.5789 34.6623 12.8219 36.3049 11.7603C39.6799 9.57895 34.9686 7.74093 33.1042 7.58248C33.0084 7.57956 32.9149 7.55279 32.8321 7.5046C32.7493 7.4564 32.6799 7.3883 32.63 7.30648C32.5802 7.22466 32.5516 7.13169 32.5468 7.03601C32.5419 6.94033 32.5611 6.84496 32.6024 6.75854C32.5472 6.77468 32.4886 6.77468 32.4334 6.75854C30.9742 6.4977 29.4782 6.52281 28.0285 6.83248C26.8982 7.12298 22.5514 8.36945 25.3771 10.8571ZM24.1887 11.3008C24.0778 15.0983 24.0303 18.9064 24.1359 22.7092C28.3243 25.1335 32.4757 25.968 37.208 24.7796C37.7745 20.5501 38.1271 16.2947 38.2644 12.0296C36.3682 13.9891 32.0584 13.7567 29.7767 13.3078C28.5936 13.0754 25.7204 12.5103 24.1887 11.3008V11.3008ZM31.3665 42.0929C33.4792 40.9151 34.113 37.5295 34.7362 35.4169C35.5654 32.5912 36.3207 29.7338 36.8489 26.8394C36.907 26.5331 36.9545 26.2215 37.0126 25.9099C32.6183 27.019 27.6905 26.137 24.1518 23.2321C24.2099 25.0067 24.2944 26.7813 24.4317 28.5507C24.6091 31.3273 24.9512 34.091 25.4563 36.8271C25.6285 37.9099 25.9539 38.9627 26.4229 39.9538C27.2943 41.6387 29.5021 43.1228 31.3665 42.0929V42.0929ZM28.4141 35.2954H28.3771C28.258 35.2661 28.1327 35.2742 28.0183 35.3186C27.904 35.363 27.8061 35.4416 27.738 35.5436C27.6599 35.6755 27.6318 35.8311 27.6588 35.982C27.7116 36.4362 28.3296 36.4838 28.6095 36.2302C28.6893 36.1699 28.7503 36.0881 28.7854 35.9944C28.8206 35.9006 28.8284 35.7989 28.8079 35.7009C28.7874 35.603 28.7395 35.5128 28.6698 35.441C28.6001 35.3692 28.5114 35.3187 28.4141 35.2954ZM29.5391 38.026C29.3489 38.026 29.3119 38.3165 29.5391 38.3165C29.7662 38.3165 29.7398 38.026 29.5391 38.026ZM31.8313 37.107C32.3172 37.107 32.4123 36.3517 31.8894 36.3517C31.3665 36.3517 31.3137 37.107 31.8313 37.107V37.107ZM30.9334 35.2743C31.1394 35.2743 31.1764 34.9574 30.9334 34.9574C30.6905 34.9574 30.7169 35.2743 30.9334 35.2743V35.2743ZM32.4809 33.8429C32.6764 33.8429 32.7133 33.5419 32.4809 33.5419C32.2486 33.5419 32.275 33.8429 32.4809 33.8429V33.8429ZM30.1148 32.2584C29.5866 32.2584 29.4704 33.1035 30.0514 33.1035C30.6324 33.1035 30.701 32.2848 30.1148 32.2848V32.2584ZM28.2926 33.5313C28.6253 33.5313 28.6834 33.0031 28.3296 33.0031C27.9757 33.0031 27.9334 33.5313 28.2926 33.5313ZM26.7081 31.5612C26.3595 31.5612 26.2961 32.0894 26.6658 32.0894C27.0355 32.0894 27.1095 31.556 26.7398 31.556L26.7081 31.5612ZM29.5126 29.5701C29.487 29.5094 29.4488 29.4549 29.4005 29.4101C29.3522 29.3653 29.295 29.3313 29.2325 29.3104C29.1701 29.2894 29.1039 29.2819 29.0384 29.2884C28.9729 29.295 28.9095 29.3153 28.8524 29.3482L28.7732 29.3799C28.6735 29.4281 28.5949 29.5111 28.5521 29.6132C28.5093 29.7154 28.5053 29.8296 28.5408 29.9345C28.5811 30.0357 28.6572 30.1185 28.7546 30.1672C28.852 30.2159 28.9639 30.227 29.069 30.1986H29.1588C29.2285 30.1878 29.295 30.1618 29.3535 30.1225C29.4121 30.0831 29.4613 30.0313 29.4976 29.9709C29.5338 29.9104 29.5564 29.8426 29.5636 29.7724C29.5707 29.7023 29.5624 29.6314 29.5391 29.5648L29.5126 29.5701ZM32.0214 30.8535C32.0838 30.8007 32.1286 30.7301 32.1498 30.6512C32.171 30.5722 32.1675 30.4887 32.14 30.4118C32.1124 30.3348 32.062 30.2681 31.9955 30.2206C31.9291 30.173 31.8496 30.1469 31.7679 30.1458H31.7045C31.6077 30.1496 31.5152 30.1869 31.4429 30.2515C31.3706 30.3161 31.3231 30.4038 31.3084 30.4996V30.5577C31.2186 30.9644 31.7838 31.0648 32.0214 30.8535ZM32.6975 32.0841H32.7662C33.2309 31.9468 32.6869 31.3711 32.5073 31.8148V31.8781C32.5024 31.9045 32.5036 31.9315 32.5108 31.9573C32.518 31.9831 32.531 32.0069 32.5489 32.0268C32.5668 32.0467 32.589 32.0622 32.6139 32.0722C32.6387 32.0821 32.6655 32.0862 32.6922 32.0841H32.6975ZM34.1764 30.938C34.5461 30.938 34.6147 30.3729 34.2186 30.3729C33.8225 30.3729 33.7802 30.938 34.1711 30.938H34.1764Z" fill="black"/>
</svg>
