<svg width="59" height="80" viewBox="0 0 59 80" fill="none" xmlns="http://www.w3.org/2000/svg">
<path d="M57.4835 0.354024C55.0127 5.24716 52.7115 10.2372 50.5072 15.2817C42.3501 11.2112 32.9821 10.278 24.1823 12.6595C23.7039 2.24951 7.35913 1.89221 2.38121 9.02602C-0.531658 13.1682 -0.834452 19.4966 1.81802 23.8326C4.98523 29.0225 11.5861 29.4525 16.8971 27.9264C17.0244 27.9 17.1373 27.827 17.2135 27.7216C17.2897 27.6163 17.3237 27.4863 17.3089 27.3571C18.1164 34.0589 18.7805 40.783 19.3013 47.5292C19.6808 52.5677 19.9654 57.6142 20.1552 62.6689C20.3369 67.4227 20.0946 72.2674 20.5851 76.997C20.6639 77.7177 21.6025 77.645 21.9659 77.1666C29.4994 80.9879 41.054 80.8546 48.6117 77.3059C48.7088 77.2594 48.7938 77.191 48.86 77.1061C48.86 77.3665 48.86 77.6269 48.8297 77.8812C48.8297 78.8804 50.1923 78.7654 50.3497 77.8812C52.0877 68.1313 52.1665 57.7878 52.6388 47.9107C53.1112 38.0336 53.4019 28.0414 53.414 18.0977C53.4988 17.9887 53.5896 17.8979 53.6623 17.7889C53.7063 17.7222 53.7368 17.6474 53.7518 17.5689C53.7668 17.4904 53.7661 17.4097 53.7498 17.3314C53.7335 17.2531 53.7018 17.1789 53.6567 17.1129C53.6115 17.047 53.5537 16.9906 53.4867 16.9471C52.978 16.6322 52.4632 16.3415 51.9424 16.0448C54.2315 10.9942 56.557 5.96176 58.8461 0.905108C59.1852 0.11179 57.8529 -0.366624 57.4835 0.354024ZM16.6852 26.8969C11.7012 27.5509 5.83911 27.6599 3.01708 22.6578C0.976252 19.0243 1.10948 13.6466 3.37437 10.1464C5.5666 6.75507 9.51502 5.1866 13.4695 5.3925C18.3142 5.64685 22.0264 8.31143 23.7645 12.7988C23.1226 12.9866 22.4927 13.1925 21.8629 13.4044C18.3687 7.76035 9.25462 5.21083 4.76117 11.2849C2.82329 13.8707 2.44783 17.6799 4.50682 20.3202C6.92917 23.4026 11.0108 23.8871 14.6565 23.9537C14.7097 23.9632 14.7643 23.9614 14.8168 23.9485C14.8694 23.9356 14.9186 23.9118 14.9614 23.8788C15.0041 23.8457 15.0395 23.804 15.0652 23.7565C15.091 23.7089 15.1064 23.6565 15.1107 23.6026C15.1149 23.5487 15.1079 23.4945 15.0899 23.4434C15.0719 23.3924 15.0435 23.3458 15.0064 23.3064C14.9694 23.267 14.9244 23.2359 14.8746 23.2149C14.8248 23.1939 14.7711 23.1836 14.717 23.1846C13.9661 23.1059 13.1849 23.0211 12.4097 22.9061C12.5013 22.7825 12.5424 22.6288 12.5248 22.4761C12.3007 20.2899 11.7375 18.237 11.3136 16.1235H11.3621C11.3901 16.1081 11.4117 16.083 11.4228 16.053C11.4339 16.023 11.4339 15.99 11.4226 15.96V15.96C13.0698 16.3718 14.717 16.8623 16.3339 17.3831C16.3782 17.4616 16.4438 17.526 16.5231 17.5688C16.6024 17.6117 16.6921 17.6313 16.7821 17.6254C16.8935 17.626 17.003 17.5958 17.0984 17.5381C17.1938 17.4805 17.2715 17.3977 17.3228 17.2987C17.3742 17.1998 17.3972 17.0886 17.3894 16.9774C17.3816 16.8662 17.3433 16.7593 17.2786 16.6685C27.725 11.5513 39.6853 11.3333 49.9803 16.5171C49.4595 17.7283 48.9508 18.9395 48.4421 20.1506C44.203 21.5738 38.4621 21.0045 34.8407 20.8955C28.5849 20.7078 22.5654 19.5996 16.4429 18.4732L16.3945 18.1098C16.3582 17.9281 16.0735 18.0069 16.0977 18.1825C16.0977 18.243 16.0977 18.3036 16.0977 18.3581L15.8918 18.3218C15.7041 18.3218 15.5891 18.5458 15.7889 18.6125L16.1523 18.7336C16.556 21.5596 16.9274 24.414 17.2665 27.2966C17.2401 27.1677 17.1648 27.0541 17.0564 26.9796C16.948 26.905 16.8149 26.8754 16.6852 26.8969ZM16.6852 15.742C16.6122 15.7763 16.5485 15.8275 16.4992 15.8913C16.4499 15.9551 16.4165 16.0297 16.4017 16.109C16.3869 16.1882 16.3912 16.2698 16.4141 16.3471C16.4371 16.4244 16.4781 16.4951 16.5338 16.5535V16.5535C14.9411 16.2749 13.3302 15.9479 11.7496 15.6027C13.1848 13.7472 14.4803 11.7878 15.6254 9.74061C15.6782 9.64907 15.6955 9.54128 15.6738 9.43782C17.9206 10.2913 19.9173 11.6947 21.4814 13.5195C19.833 14.134 18.2354 14.8771 16.7033 15.742H16.6852ZM11.3015 22.7062C9.3394 22.3247 7.44997 21.6586 6.02079 20.2294C5.85568 20.0626 5.7 19.8867 5.55448 19.7025C7.46814 18.673 9.2304 17.3892 11.0714 16.2446C11.3417 18.3527 11.4187 20.4811 11.3015 22.6033C11.2981 22.6375 11.2981 22.672 11.3015 22.7062V22.7062ZM7.92233 10.11C7.9674 10.0224 7.98432 9.923 7.97078 9.8254C9.02858 9.23544 10.1994 8.87643 11.4061 8.77204C12.6128 8.66765 13.8279 8.82027 14.9714 9.21981C14.9271 9.25182 14.8883 9.29066 14.8563 9.33487C13.4613 11.2709 12.2143 13.3095 11.1259 15.4331C9.95104 13.7314 8.96999 11.9147 7.94049 10.11H7.92233ZM7.01395 10.4976C8.22512 12.3144 9.67247 14.0403 11.0108 15.8025C11.0259 15.8207 11.0464 15.8334 11.0694 15.8389C11.0923 15.8443 11.1164 15.8422 11.138 15.8328V15.8328C9.12745 16.9047 7.01395 17.801 5.08213 18.9879C4.42532 17.7475 4.17708 16.3314 4.37284 14.9416C4.56859 13.5517 5.19832 12.2592 6.17218 11.2485C6.45083 10.9775 6.74831 10.7266 7.0624 10.4976H7.01395ZM16.5217 18.8184C23.4011 21.0287 30.977 21.7978 38.1593 21.8463C41.06 21.8463 44.7178 22.0582 47.9153 21.3013C46.0985 25.5828 44.3786 29.8885 42.6648 34.1821C41.708 36.5802 40.7613 38.9884 39.8246 41.4067C38.2683 41.5521 36.6998 41.6369 35.1192 41.6369C29.8446 41.6369 24.8242 40.6134 19.6707 39.7414C18.8229 32.7408 17.7732 25.7664 16.5217 18.8184ZM51.3308 47.8865C51.0038 52.6868 50.6323 57.4851 50.2165 62.2813C49.8107 66.9261 49.1022 71.6134 48.8721 76.2764C48.8046 76.1471 48.6927 76.0465 48.557 75.9931C48.4212 75.9397 48.2708 75.9371 48.1333 75.9857C43.7852 77.1545 39.7217 78.3596 35.1616 78.4505C30.6015 78.5413 26.5017 77.4573 22.1173 76.5126C22.4685 71.5589 21.9174 66.4175 21.6268 61.4759C21.3563 56.9097 20.999 52.3456 20.5549 47.7836C20.3126 45.3249 20.0462 42.8682 19.7555 40.4136C25.5873 42.8359 32.4728 43.6474 39.1343 43.175C35.7611 51.9621 32.606 60.8582 30.0141 69.8753C29.9233 70.2024 30.4017 70.2993 30.5107 70.0025C33.8535 61.0217 37.0632 51.9984 40.5029 43.0539C44.0302 42.7215 47.5119 42.013 50.8887 40.9404C51.7607 40.6558 51.5791 39.3598 50.6222 39.5779C47.5132 40.3163 44.3653 40.8804 41.1933 41.2674C42.0047 39.1782 42.8223 37.101 43.6701 35.0239C45.6261 30.1792 47.6973 25.4435 49.8168 20.7017C50.9534 20.2633 51.9851 19.5907 52.8447 18.7275C52.4814 28.4593 51.9969 38.185 51.3308 47.8926V47.8865ZM52.1907 17.6677C51.7191 18.225 51.1633 18.7051 50.5435 19.0909C50.8221 18.4853 51.1067 17.8312 51.3913 17.2014C51.6578 17.3589 51.9242 17.5042 52.1907 17.6738V17.6677Z" fill="black"/>
</svg>
