<svg width="75" height="80" viewBox="0 0 75 80" fill="none" xmlns="http://www.w3.org/2000/svg">
<path d="M73.9807 30.4114C72.7338 32.3769 71.5578 34.4296 70.4307 36.4877C70.3607 36.5206 70.3006 36.5713 70.2565 36.6347L69.8045 37.2935C59.8461 30.0084 50.0019 22.5056 39.8039 15.5689L42.8802 10.8429C52.4793 18.0082 62.4323 24.8142 72.3255 31.533C73.0714 32.0448 73.9589 30.8306 73.164 30.2807C63.0258 23.2188 52.7951 16.0916 42.3357 9.48715C42.2537 9.44569 42.1594 9.43571 42.0706 9.45909C41.9817 9.48246 41.9045 9.53758 41.8536 9.61401C41.8026 9.69045 41.7814 9.7829 41.794 9.8739C41.8066 9.9649 41.8521 10.0481 41.9219 10.1079L42.2976 10.3855C41.3067 11.9972 40.3193 13.6088 39.3357 15.2205L39.1288 15.0844C38.8565 14.8938 38.4264 15.3457 38.7095 15.5744L38.9872 15.7922L38.8456 16.0209C38.82 16.0557 38.8037 16.0964 38.7981 16.1392C38.7924 16.1821 38.7978 16.2256 38.8135 16.2658C38.8293 16.3061 38.855 16.3416 38.8882 16.3693C38.9214 16.3969 38.9611 16.4156 39.0035 16.4238C38.9279 16.496 38.8652 16.5807 38.8184 16.6742C32.448 29.4313 26.4207 42.673 21.5803 56.2141C21.8362 53.6115 22.4242 49.0706 20.7309 46.9253C17.3824 42.6893 13.3206 50.459 11.9213 54.5861C11.2 53.3278 10.1957 52.2545 8.98801 51.4513C7.78031 50.648 6.40227 50.1368 4.96289 49.958C2.78499 49.7403 0.100719 50.606 0.00271311 53.1541C-0.122516 56.4591 4.11895 60.559 6.1934 62.7532C9.20436 65.9439 12.8632 69.0692 16.8542 70.9585C16.8052 71.1327 16.7508 71.307 16.7018 71.503C16.5167 72.1672 17.4913 72.3687 17.7091 71.7643C20.9759 62.628 24.0141 53.4481 27.673 44.448C31.4371 35.2064 35.5624 26.1318 40.0489 17.2242C40.1254 17.0866 40.1577 16.9288 40.1415 16.7722C49.5391 24.2915 59.3288 31.3533 68.9497 38.5513C62.4813 47.9435 56.4921 57.7441 50.9003 67.6807C51.2706 65.4538 51.4448 63.0309 50.8023 61.147C50.2578 59.5898 48.9565 59.1869 47.481 59.7967C45.3793 60.6624 44.0345 63.118 43.3376 65.2851C42.2486 62.971 40.3103 60.1561 37.8166 59.5136C36.1015 59.0726 34.8383 60.0962 34.7348 61.8004C34.5715 64.4847 36.8147 67.9094 38.0017 70.1472C39.7547 73.5943 41.9016 76.8265 44.3993 79.779C44.9764 80.4324 46 79.4959 45.4882 78.7989C42.8149 75.2762 40.2449 71.8405 38.2413 67.8768C37.626 66.6571 35.5516 63.5808 35.9272 62.3503C36.9291 59.0399 39.8148 61.9801 40.6152 62.8948C41.5199 63.969 42.2644 65.1683 42.8257 66.4557C42.8558 66.527 42.908 66.5867 42.9747 66.626C43.0415 66.6652 43.1191 66.6819 43.196 66.6735C43.2453 66.7114 43.303 66.7368 43.3643 66.7476C43.4255 66.7585 43.4885 66.7543 43.5478 66.7356C43.6071 66.7169 43.6611 66.6842 43.705 66.6402C43.749 66.5962 43.7817 66.5422 43.8004 66.4829C44.1488 65.3068 47.6444 57.7713 49.8822 61.8276C50.5301 62.9874 49.8822 66.2433 49.7134 67.5065C49.1916 71.4915 47.8673 75.3293 45.8204 78.788C45.775 78.8598 45.7447 78.9399 45.7313 79.0237C45.7178 79.1075 45.7216 79.1931 45.7423 79.2754C45.7629 79.3577 45.8001 79.4349 45.8516 79.5024C45.903 79.5699 45.9676 79.6262 46.0415 79.668C46.1154 79.7097 46.197 79.736 46.2813 79.7452C46.3657 79.7545 46.451 79.7465 46.5322 79.7217C46.6133 79.697 46.6886 79.656 46.7534 79.6012C46.8183 79.5465 46.8713 79.4792 46.9093 79.4033C48.3051 76.9165 49.3773 74.2616 50.0999 71.503C50.2234 71.4963 50.3431 71.4577 50.4471 71.3909C50.5511 71.3241 50.636 71.2314 50.6934 71.1218C56.5357 60.7768 62.6392 50.6114 68.8844 40.5059C68.9526 40.5579 69.0313 40.5945 69.115 40.6131C69.1987 40.6318 69.2855 40.632 69.3693 40.6139C69.4531 40.5958 69.532 40.5597 69.6006 40.5082C69.6692 40.4567 69.7257 40.3909 69.7664 40.3154C69.9897 39.907 70.2129 39.4987 70.4416 39.0958C70.5454 39.0183 70.6313 38.9194 70.6933 38.8057C70.7554 38.6919 70.7921 38.5662 70.8009 38.4369C72.1893 35.916 73.5233 33.3461 74.7266 30.7435C74.9335 30.2644 74.2148 30.0466 73.9807 30.4114ZM4.76688 59.225C3.82461 58.1284 2.96213 56.9657 2.18606 55.7458C1.38024 54.4228 1.05355 54.0035 1.71781 52.5171C2.38207 51.0307 3.128 50.8837 4.72332 50.949C7.73427 51.0851 10.2606 53.2794 11.5619 55.8493C11.5129 56.0725 11.4748 56.2685 11.453 56.4264C11.404 56.8674 12.1173 56.9273 12.2208 56.5244C12.2226 56.4954 12.2226 56.4663 12.2208 56.4373C12.2867 56.4208 12.3485 56.3907 12.402 56.3488C12.4556 56.3069 12.4997 56.2541 12.5316 56.1941C12.5634 56.134 12.5822 56.0679 12.5869 56C12.5915 55.9322 12.5817 55.8641 12.5583 55.8003L12.4549 55.5879C13.029 53.3506 14.0291 51.245 15.4005 49.3863C16.7399 47.6658 19.0213 46.2175 20.3879 49.223C20.8561 50.263 20.573 51.9454 20.5621 53.0942C20.4968 58.392 19.1955 63.3739 17.1755 68.2416C17.1424 68.2999 17.1231 68.3651 17.1191 68.432C17.115 68.499 17.1263 68.566 17.152 68.6279C17.1777 68.6899 17.2172 68.7452 17.2675 68.7895C17.3178 68.8339 17.3776 68.8662 17.4423 68.884C17.3715 69.1127 17.3062 69.3414 17.2408 69.5701C12.6128 66.5755 8.32775 63.5482 4.76688 59.225ZM39.3847 16.2387L39.4337 16.1624L39.5153 16.2223C39.466 16.2244 39.4169 16.2299 39.3683 16.2387H39.3847ZM8.26241 35.1537C9.34495 34.4384 10.2359 33.469 10.8576 32.3301C11.4792 31.1912 11.8127 29.9175 11.8287 28.62C11.9589 28.5635 12.0641 28.4618 12.1252 28.3337C12.1862 28.2056 12.1989 28.0598 12.1609 27.9231C12.0465 27.5039 11.9431 27.0792 11.8287 26.6545H11.9322C12.444 26.7362 12.7816 25.9467 12.2153 25.8432C12.0084 25.8051 11.8015 25.7833 11.6001 25.7615C9.46184 17.5133 7.98884 9.10688 7.19524 0.623082C9.91762 2.95888 10.0919 6.56876 12.1445 9.3347C13.6364 11.3601 16.0158 12.4164 18.406 11.3983C19.2227 11.0498 18.6129 9.94996 17.8071 10.2766C13.9522 11.8338 12.1336 7.00978 10.9303 4.36363C10.1082 2.60497 9.12269 0.955212 7.34225 0.0296032C7.10812 -0.0956263 6.76511 0.203835 6.91756 0.416181C6.86469 0.415426 6.81222 0.425373 6.76329 0.445424C6.71437 0.465475 6.67001 0.495214 6.63288 0.532854C6.59575 0.570493 6.56661 0.615256 6.54723 0.664447C6.52785 0.713638 6.51862 0.766242 6.52009 0.819094C7.17939 9.20361 8.42934 17.5312 10.2606 25.7398C8.2545 25.782 6.32035 26.4951 4.76688 27.7652C3.00278 29.2135 1.12433 32.121 2.26229 34.4405C3.40024 36.76 6.48742 36.3135 8.26241 35.1537ZM10.4403 26.5946C10.5111 26.9104 10.5819 27.2316 10.6581 27.5474C10.5875 27.6312 10.5489 27.7373 10.5492 27.8469C10.5898 28.8439 10.431 29.839 10.0823 30.7739C9.73359 31.7088 9.20188 32.5647 8.51832 33.2916C6.99923 34.838 2.97555 36.0902 3.11167 32.5403C3.24779 28.9903 7.13535 26.7416 10.4567 26.5946H10.4403Z" fill="black"/>
</svg>
