<svg width="50" height="80" viewBox="0 0 50 80" fill="none" xmlns="http://www.w3.org/2000/svg">
<path d="M33.7853 31.8278C31.3134 30.8435 28.6962 30.2731 26.0389 30.1392C29.5531 26.4017 32.7214 22.3534 35.5051 18.0441C35.558 17.9598 35.5856 17.862 35.5846 17.7623C35.5835 17.6627 35.5539 17.5655 35.4991 17.4823C35.4443 17.3991 35.3668 17.3333 35.2758 17.2929C35.1847 17.2525 35.0839 17.2392 34.9855 17.2544C34.9616 17.2276 34.9335 17.2048 34.9024 17.1869C34.931 17.1452 34.9538 17.0997 34.9699 17.0518C35.4895 17.3583 36.3 16.6102 35.7804 16.1062C33.5417 13.8589 31.0361 11.8942 28.3197 10.2561C28.323 10.1737 28.3067 10.0917 28.272 10.0169C28.2374 9.94206 28.1854 9.87655 28.1204 9.82578C28.0554 9.77502 27.9793 9.74045 27.8983 9.72493C27.8173 9.70942 27.7338 9.7134 27.6547 9.73656C24.0178 10.4276 20.2251 11.1913 16.7753 12.6252C16.7294 12.6467 16.6924 12.6834 16.6706 12.7291C16.6488 12.7749 16.6436 12.8268 16.6559 12.8759C16.6682 12.9251 16.6972 12.9684 16.7379 12.9985C16.7787 13.0286 16.8286 13.0436 16.8792 13.0409C16.8555 13.0666 16.8381 13.0975 16.8284 13.1311C16.8188 13.1648 16.8172 13.2002 16.8238 13.2346C16.8303 13.269 16.8449 13.3013 16.8663 13.329C16.8876 13.3568 16.9152 13.3791 16.9468 13.3942C18.2621 14.0567 19.6825 14.4857 21.1447 14.6619C18.8068 15.4568 16.1311 16.34 14.1204 17.6597C13.9178 17.7948 14.0009 18.0857 14.2555 18.0389C16.6402 17.6441 19.2276 16.4491 21.4824 15.4412C20.9057 17.0362 20.2979 18.6416 19.8718 20.273C17.8508 19.5093 15.6687 19.0417 13.6373 18.3559C13.5889 18.3348 13.5367 18.324 13.484 18.324C13.4312 18.324 13.3791 18.3348 13.3307 18.3559C14.3906 16.6933 15.4297 14.958 16.5935 13.3162C16.9104 12.8746 16.1986 12.5109 15.9077 12.9266C14.5929 14.6926 13.4973 16.6116 12.6449 18.6416C12.5514 18.8858 12.9099 18.9897 13.0398 18.7975L13.0865 18.7299C13.0722 18.8169 13.0895 18.906 13.1353 18.9813C13.181 19.0566 13.2522 19.113 13.3359 19.1404C15.4141 19.9665 17.7001 20.99 19.929 21.3744H20.0277C20.0122 21.4181 20.0122 21.4658 20.0277 21.5095C21.0668 24.1073 22.1423 26.6479 23.0982 29.2612C19.9148 25.7001 16.5524 22.3031 13.0242 19.0832C12.9664 19.0347 12.893 19.0087 12.8175 19.0101C12.7421 19.0116 12.6697 19.0404 12.6138 19.0911C12.558 19.1419 12.5225 19.2112 12.5139 19.2862C12.5052 19.3612 12.5241 19.4368 12.567 19.4989C15.6103 23.2391 18.8463 26.8185 22.2618 30.2224C18.5326 30.5769 14.9204 31.715 11.6614 33.562C8.40246 35.4091 5.57027 37.9234 3.35019 40.9406C3.27942 41.0139 3.22657 41.1025 3.19577 41.1996C3.16498 41.2967 3.15707 41.3996 3.17267 41.5002C3.18827 41.6008 3.22695 41.6965 3.28569 41.7797C3.34443 41.8629 3.42163 41.9314 3.51125 41.9797C0.937189 46.3434 -0.268492 51.379 0.05013 56.4352C0.368752 61.4915 2.19702 66.3359 5.2985 70.3419C12.0111 79.0911 23.8568 82.2552 34.1386 78.3482C43.6152 74.7477 49.8394 65.1204 49.855 55.0516C49.8758 44.8632 43.1476 35.5945 33.7853 31.8278ZM28.8548 19.1144C28.9076 19.0149 28.9209 18.8992 28.892 18.7903C28.8631 18.6814 28.7942 18.5875 28.699 18.5273C26.7766 17.2181 24.8075 15.9296 22.7917 14.7658C22.7625 14.7605 22.7326 14.7605 22.7034 14.7658V14.7658C22.7127 14.7055 22.7127 14.6442 22.7034 14.5839C22.743 14.5903 22.7833 14.5903 22.8229 14.5839C26.6987 14.5839 30.242 16.2881 33.91 17.3168C32.1846 17.7959 30.4954 18.3966 28.8548 19.1144V19.1144ZM23.5866 13.9657C25.1453 13.0409 26.7039 12.1057 28.1846 11.077C30.1901 12.8279 32.2215 14.506 34.1594 16.3348C30.7616 15.2698 27.1663 14.0332 23.5866 13.9657ZM22.2254 14.1631C22.1833 14.171 22.1416 14.1815 22.1007 14.1943C22.0887 14.0916 22.0411 13.9963 21.9661 13.9251C21.8911 13.8539 21.7935 13.8112 21.6903 13.8046C20.2285 13.6106 18.781 13.3208 17.3572 12.937C20.5524 12.3291 23.6957 11.5238 26.9013 10.9575C25.3011 11.955 23.7425 13.0773 22.2254 14.1631ZM22.5371 15.3165C24.34 16.7401 26.2311 18.0805 28.1327 19.3742C28.1594 19.3869 28.1872 19.3974 28.2158 19.4054C28.1686 19.4383 28.131 19.4831 28.1067 19.5352C25.7055 19.6688 23.3146 19.9481 20.9473 20.3717C21.5708 18.7092 22.0384 16.9998 22.5371 15.3165V15.3165ZM28.5327 20.3146C28.6122 20.2831 28.6828 20.2325 28.7381 20.1673C28.7934 20.102 28.8317 20.0241 28.8496 19.9405C30.5787 19.5378 32.2782 19.017 33.936 18.3818C31.4318 21.894 28.8444 25.3022 26.1428 28.6377C27.1974 25.944 27.9976 23.1575 28.5327 20.3146V20.3146ZM20.4745 21.2238C20.5421 21.1869 20.6007 21.1354 20.646 21.0731C23.0151 20.7614 25.3791 20.6159 27.7534 20.4029C26.6416 23.6189 25.6752 26.8713 24.4854 30.0509C24.4854 30.0509 24.4854 30.0873 24.4854 30.1029C23.5427 27.0047 22.2144 24.0374 20.5317 21.2705L20.4745 21.2238ZM36.4506 75.3815C27.7586 80.2289 16.4064 78.8625 9.16394 72.0408C0.851161 64.206 -0.754246 51.9499 4.40487 42.0421C4.55286 41.982 4.68204 41.8833 4.77895 41.7563C10.655 34.1553 20.6823 30.0249 30.1641 32.4824C39.0276 34.784 46.2961 42.4629 47.7664 51.5446C49.2627 60.7926 44.6803 70.7991 36.4506 75.3815V75.3815ZM1.8383 26.757C4.00482 25.4945 6.18693 24.232 8.4054 23.0578C8.42464 23.0442 8.44654 23.0349 8.46965 23.0305C8.49276 23.026 8.51655 23.0266 8.53944 23.032C8.56234 23.0374 8.58382 23.0477 8.60247 23.062C8.62112 23.0764 8.6365 23.0945 8.64762 23.1152C8.65873 23.136 8.66531 23.1589 8.66693 23.1823C8.66855 23.2058 8.66516 23.2294 8.657 23.2514C8.64884 23.2735 8.63608 23.2936 8.61958 23.3104C8.60307 23.3271 8.5832 23.3402 8.56126 23.3487C6.4467 24.7099 4.27498 25.9984 2.11366 27.2765C2.07927 27.3004 2.0402 27.3168 1.99902 27.3245C1.95785 27.3322 1.91551 27.3311 1.8748 27.3212C1.83409 27.3113 1.79594 27.2929 1.76287 27.2672C1.72979 27.2415 1.70255 27.2091 1.68293 27.1721C1.66332 27.1351 1.65177 27.0943 1.64907 27.0525C1.64637 27.0107 1.65256 26.9688 1.66724 26.9296C1.68193 26.8903 1.70477 26.8547 1.73426 26.8249C1.76374 26.7952 1.7992 26.772 1.8383 26.757ZM7.06496 7.18557C7.01352 7.13204 6.98215 7.06237 6.97616 6.98837C6.97017 6.91436 6.98993 6.84056 7.0321 6.77945C7.07427 6.71833 7.13625 6.67367 7.20756 6.653C7.27887 6.63233 7.35514 6.63693 7.42345 6.66602C8.66517 7.4973 9.9017 8.32858 11.133 9.17545C11.5383 9.456 11.0811 10.0847 10.7018 9.81969C9.48086 8.94165 8.27551 8.06361 7.06496 7.18557ZM25.5869 3.87085C25.7843 2.66896 25.9939 1.47227 26.2155 0.280772C26.2883 -0.0725207 26.8961 -0.114085 26.839 0.280772C26.6727 1.48093 26.4753 2.6707 26.2779 3.86566C26.2051 4.2761 25.5193 4.30208 25.5869 3.87085V3.87085ZM38.8094 11.4615C40.9603 10.4535 43.1424 9.51315 45.3193 8.57796C45.896 8.32858 46.3584 9.13908 45.7506 9.38326C43.5581 10.3029 41.3656 11.2329 39.1419 12.0849C38.7211 12.2564 38.373 11.6745 38.8094 11.4615ZM35.9415 24.8762C38.0197 25.7231 40.0407 26.5699 42.0877 27.4324C42.6073 27.6558 42.0877 28.4039 41.5682 28.1857C39.5385 27.3094 37.514 26.4245 35.4947 25.5308C35.0686 25.323 35.5414 24.7048 35.9623 24.8762H35.9415Z" fill="black"/>
</svg>
