<svg width="192" height="203" viewBox="0 0 192 203" fill="none" xmlns="http://www.w3.org/2000/svg">
<path fill-rule="evenodd" clip-rule="evenodd" d="M161.714 2.52632C155.097 9.43432 150.052 23.9933 150.584 34.6513C150.911 41.2163 150.644 42.5163 147.87 47.8473C146.177 51.0993 144.441 53.9783 144.012 54.2433C143.583 54.5083 143.053 50.3433 142.836 44.9873C142.618 39.6323 142.008 34.5753 141.48 33.7503C140.952 32.9253 139.837 30.3003 139.002 27.9163C138.167 25.5333 137.055 23.5883 136.531 23.5943C133.429 23.6283 132.36 40.2373 134.573 54.0003C135.392 59.0923 136.456 58.7143 136.703 53.2433C136.815 50.7723 136.478 48.7503 135.953 48.7503C134.856 48.7503 134.834 40.5653 135.912 33.2503C136.591 28.6413 136.727 28.4453 137.655 30.7503C138.256 32.2423 138.412 37.4823 138.042 43.7503C137.701 49.5253 137.838 55.8253 138.346 57.7503C140.103 64.4063 139.488 66.9753 133.917 76.2503C130.944 81.2003 127.942 86.3753 127.246 87.7503C126.551 89.1253 124.803 91.8253 123.362 93.7503L120.743 97.2503L121.364 92.4183C121.705 89.7603 122.846 86.4893 123.9 85.1503C124.954 83.8103 126.708 79.6853 127.798 75.9823C131.82 62.3203 131.57 60.7953 126.442 67.7263C124.824 69.9133 123.192 71.7133 122.815 71.7263C122.438 71.7393 122.39 67.7383 122.708 62.8343C123.331 53.2083 122.208 48.0283 117.412 38.4183C116.085 35.7603 115 32.4983 115 31.1683C115 29.8383 114.559 28.7503 114.019 28.7503C112.486 28.7503 111.613 33.5323 111.554 42.2503C111.498 50.5873 114.345 62.2023 117.437 66.2503C118.877 68.1353 118.929 68.0483 118.34 64.7503C117.996 62.8253 116.91 59.0003 115.926 56.2503C113.403 49.1953 112.916 38.9623 115.17 40.3553C115.964 40.8463 116.128 40.5263 115.681 39.3623C115.276 38.3063 115.419 37.8913 116.052 38.2823C116.618 38.6323 116.79 39.8373 116.434 40.9593C115.961 42.4483 116.127 42.7893 117.047 42.2213C117.874 41.7103 118.059 41.8453 117.584 42.6143C117.186 43.2593 117.791 45.2943 118.93 47.1363C120.341 49.4193 120.969 52.0413 120.902 55.3683L120.804 60.2503L119 54.7503C116.793 48.0213 116.432 51.1503 118.5 59.0893C119.325 62.2563 120.003 66.2883 120.006 68.0493C120.009 69.8093 120.465 72.8823 121.019 74.8773C121.593 76.9453 121.668 79.4723 121.194 80.7553C120.462 82.7333 120.097 82.2803 118.181 77.0253C116.981 73.7363 116 70.3303 116 69.4563C116 68.5833 115.474 67.5433 114.83 67.1453C114.043 66.6593 113.869 66.9673 114.299 68.0863C115.208 70.4573 114.283 70.1473 112.935 67.6293C112.138 66.1393 112.127 65.7113 112.9 66.1883C114.456 67.1503 114.289 66.3443 111.87 61.1973C109.219 55.5573 95 43.2773 95 46.6273C95 47.7303 95.45 48.9103 96 49.2503C96.55 49.5903 97.006 51.0793 97.013 52.5593C97.033 57.0303 103.037 66.1403 109.619 71.6873C122.037 82.1513 122.376 90.5473 111.354 114.583C107.205 123.63 100.541 134.95 98.023 137.229C96.185 138.892 96.179 138.819 97.752 134.091C100.667 125.328 99.133 88.1863 95.77 86.1083C95.12 85.7063 94.979 87.8973 95.366 92.3703C96.646 107.162 96.99 122.413 96.119 125.75C95.333 128.759 95.19 128.154 95.102 121.441C94.954 110.148 93.38 112.835 92.741 125.471C92.442 131.399 91.756 137.375 91.217 138.75C90.356 140.947 90.156 140.523 89.569 135.25C89.201 131.95 88.499 126.325 88.009 122.75C85.688 105.838 85.804 98.3843 88.556 87.5563C92.168 73.3443 91.917 74.0053 93.038 75.7783C93.55 76.5883 93.976 78.6863 93.985 80.4413C93.993 82.1963 94.526 83.9573 95.17 84.3553C95.941 84.8323 96.136 84.5463 95.741 83.5163C95.411 82.6573 94.826 78.7593 94.441 74.8523C93.259 62.8503 91.24 65.6883 86.929 85.4123C85.292 92.9003 84.172 99.7523 84.44 100.638C84.707 101.525 85.196 108.325 85.525 115.75C85.854 123.175 86.535 131.05 87.037 133.25C87.54 135.45 87.962 139.814 87.976 142.948C87.999 148.345 87.731 148.969 82.917 154.754C75.001 164.266 59.452 177.624 45 187.329C41.425 189.73 37.444 192.465 36.154 193.407C34.035 194.955 34.111 194.644 36.939 190.185C38.66 187.471 40.563 185.25 41.167 185.25C41.771 185.25 45.344 179.896 49.107 173.352C52.87 166.809 58.435 158.208 61.475 154.241C64.514 150.273 67 146.544 67 145.955C67 145.366 68.396 140.549 70.101 135.251C71.807 129.954 72.87 125.311 72.464 124.935C72.058 124.558 71.556 124.721 71.348 125.296C71.14 125.872 69.344 128.797 67.358 131.796C62.964 138.432 56.652 150.81 54.889 156.25C52.508 163.593 51.849 162.401 52.681 152.25C53.131 146.75 53.497 140.112 53.493 137.5C53.488 134.887 53.765 132.75 54.106 132.75C54.448 132.75 55.947 128.45 57.439 123.194C60.115 113.763 60.129 113.563 58.485 107.944C57.568 104.812 56.41 101.216 55.909 99.9533C55.409 98.6903 55 96.6093 55 95.3293C55 94.0493 54.299 91.0323 53.442 88.6263C52.585 86.2193 51.817 81.0193 51.734 77.0693C51.652 73.1203 51.22 70.1143 50.773 70.3903C47.777 72.2423 42 90.1923 42 97.6523C42 99.3063 43.143 103.717 44.539 107.455C51.017 124.789 51.456 126.766 51.386 138.25C51.315 149.75 49.73 162.344 47.566 168.583C46.34 172.121 46.275 171.899 45.734 162.25C45.08 150.604 41.158 137.516 35.452 127.937C30.451 119.542 23 98.4943 23 92.7633C23 88.8653 21.113 90.8073 20.34 95.5003C18.492 106.722 19.346 114.553 23.914 128.25C26.298 135.4 29.093 142.179 30.124 143.314C31.156 144.45 32 145.831 32 146.384C32 146.938 33.575 149.23 35.5 151.479C37.425 153.728 39 156.118 39 156.791C39 157.464 39.906 159.48 41.014 161.272C43.861 165.879 43.228 176.289 39.782 181.539C29.375 197.396 28.239 198.541 20.724 200.76C15.007 202.447 14.785 202.613 18 202.792C23.891 203.12 24.098 203.066 33.25 198.816C35.862 197.602 38 196.116 38 195.513C38 194.91 38.294 194.711 38.653 195.07C39.013 195.429 40.827 194.784 42.685 193.635C44.544 192.487 48.637 190.223 51.782 188.604C54.927 186.985 58.559 185.053 59.853 184.311C61.68 183.265 65.885 183.084 78.64 183.506C88.759 183.84 95.924 183.661 97.287 183.041C109.332 177.559 128.491 171.885 135.25 171.798C137.313 171.772 139 171.336 139 170.829C139 169.653 136.152 169.056 122 167.265C115.675 166.465 107.911 165.301 104.747 164.68C95.025 162.771 82.653 166.529 66.5 176.298C60.981 179.636 59.882 179.363 64.6 175.827C66.745 174.219 73.9 167.665 80.5 161.262C87.1 154.86 94.75 148.355 97.5 146.807C102.824 143.811 115.88 139.346 122.5 138.257C127.468 137.44 132.742 134.554 142.176 127.489C146.204 124.473 150.512 121.692 151.75 121.31C153.737 120.697 154.987 118.75 153.395 118.75C151.812 118.75 135.283 124.166 133.511 125.264C132.405 125.951 130.375 126.781 129 127.109C127.625 127.438 124.128 129.517 121.23 131.728C118.331 133.94 115.326 135.75 114.552 135.75C113.778 135.75 110.295 137.236 106.812 139.051C96.856 144.241 96.677 144.276 98.545 140.663C99.407 138.995 101.582 135.97 103.376 133.94C108.607 128.026 111.944 123.261 115.438 116.722C118.536 110.925 119.116 110.415 126.603 106.925C139.268 101.021 140.991 99.7923 150.143 90.1453C156.248 83.7093 158.501 82.0693 168.488 76.7863C177.592 71.9713 174.758 71.4753 160.236 75.3433C147.771 78.6643 146.422 79.3393 141.546 84.6973C139.321 87.1433 136.136 90.5183 134.468 92.1973C132.801 93.8763 129.674 97.4593 127.521 100.159C125.368 102.859 123.444 104.582 123.246 103.988C122.727 102.432 127.582 93.2303 132.271 86.8833C136.201 81.5633 140.979 70.7653 142.506 63.7503C144.728 53.5453 152.13 48.6543 170.615 45.1783C173.276 44.6773 182.248 38.6613 182.761 37.0323C183.382 35.0643 174.116 38.2243 152.278 47.4273C151.606 47.7113 152.238 45.7623 153.682 43.0963C155.126 40.4313 156.919 37.0683 157.666 35.6223C160.093 30.9273 165.812 1.41532 164.567 0.0103168C164.45 -0.120683 163.166 1.01132 161.714 2.52632ZM159.397 9.50032C155.558 18.3313 153.821 23.5733 153.102 28.5003C152.68 31.3883 152.627 33.7503 152.985 33.7503C153.342 33.7503 154.459 31.1623 155.466 28.0003C156.473 24.8383 157.495 22.8203 157.737 23.5163C157.979 24.2123 157.464 26.8763 156.592 29.4353C155.719 31.9953 155.194 34.2773 155.424 34.5073C156.052 35.1353 161.389 16.1663 162.742 8.50032C163.455 4.45732 161.31 5.09932 159.397 9.50032ZM139.058 44.5003C139.089 47.1123 139.488 51.0503 139.943 53.2503C140.638 56.6123 140.788 55.8543 140.885 48.5003C140.954 43.2573 140.599 39.7503 140 39.7503C139.45 39.7503 139.026 41.8883 139.058 44.5003ZM99 51.6533C99 54.5913 103.389 63.7483 105.992 66.2433C109.555 69.6563 110.876 69.1333 107.983 65.4553C106.858 64.0253 104.797 60.3653 103.404 57.3223C100.981 52.0283 99 49.4793 99 51.6533ZM105.022 55.9433C104.997 56.7263 109.03 63.7503 109.505 63.7503C109.674 63.7503 109.606 62.9633 109.353 62.0003C108.856 60.1113 105.059 54.8003 105.022 55.9433ZM125.028 73.1763C124.463 74.6633 124.032 76.6383 124.07 77.5653C124.109 78.4923 124.786 77.4893 125.574 75.3373C126.363 73.1853 126.794 71.2103 126.532 70.9493C126.27 70.6873 125.593 71.6893 125.028 73.1763ZM156.059 77.9853C149.766 79.7443 147.954 80.7743 144.305 84.6583C141.933 87.1833 139.511 89.7003 138.923 90.2503C135.017 93.9063 132.672 96.4983 131.803 98.1213C130.549 100.46 131.428 99.9763 139.25 94.0153C142.514 91.5283 145.02 90.1993 145.045 90.9423C145.07 91.6613 145.752 90.9003 146.56 89.2503C147.369 87.6003 147.77 87.1493 147.451 88.2483C146.942 90.0063 147.211 89.9373 149.686 87.6723C153.638 84.0553 161.19 78.7563 162.447 78.7183C163.026 78.7013 164.374 78.0263 165.441 77.2183C167.363 75.7653 167.363 75.7513 165.441 75.8273C164.374 75.8703 160.152 76.8413 156.059 77.9853ZM47.795 80.7503C46.857 83.2253 45.353 88.2353 44.452 91.8833L42.816 98.5163L46.304 107.383C48.223 112.26 50.075 117.102 50.42 118.143C51.491 121.376 51.78 119.486 51.054 114C50.671 111.113 50.669 108.75 51.048 108.75C51.932 108.75 52.975 115.032 52.989 120.441C53.005 126.687 54.577 126.479 55.867 120.06C57.315 112.846 57.367 109.635 56 111.75C55.32 112.802 55.026 111.266 55.015 106.609C55.007 102.89 53.938 95.8513 52.586 90.6093C51.258 85.4623 50.02 80.1253 49.836 78.7503C49.545 76.5833 49.273 76.8503 47.795 80.7503ZM48.758 93.5183C49.429 99.7653 50 100.206 50 94.4763C50 91.9413 49.606 89.6253 49.125 89.3273C48.644 89.0303 48.478 90.9163 48.758 93.5183ZM139.617 95.7443C134.397 99.6953 133.936 100.291 137.502 98.4803C140.068 97.1763 145.1 92.6963 143.905 92.7783C143.682 92.7933 141.753 94.1283 139.617 95.7443ZM92.286 101.25C92.294 104 92.488 105.006 92.718 103.486C92.947 101.966 92.941 99.7163 92.704 98.4863C92.467 97.2563 92.279 98.5003 92.286 101.25ZM21 107.007C21 113.91 22.492 119.784 28.046 134.75C29.712 139.24 35.788 148.455 37.522 149.12C38.293 149.416 37.22 146.078 34.973 141.191C32.838 136.548 31.463 132.75 31.917 132.75C32.71 132.75 41.057 150.772 42.489 155.575C42.871 156.854 43.372 157.712 43.603 157.48C43.834 157.249 42.872 152.603 41.464 147.155C39.744 140.498 37.32 134.452 34.071 128.716C31.412 124.022 27.721 115.589 25.868 109.977C24.016 104.365 22.162 99.7683 21.75 99.7623C21.338 99.7553 21 103.015 21 107.007ZM49.079 101.333C49.127 102.498 49.364 102.735 49.683 101.938C49.972 101.216 49.936 100.353 49.604 100.021C49.272 99.6893 49.036 100.279 49.079 101.333ZM50.079 105.333C50.127 106.498 50.364 106.735 50.683 105.938C50.972 105.216 50.936 104.353 50.604 104.021C50.272 103.689 50.036 104.279 50.079 105.333ZM27.031 124.25C27.031 124.8 27.467 125.925 28 126.75C28.533 127.575 28.969 127.8 28.969 127.25C28.969 126.7 28.533 125.575 28 124.75C27.467 123.925 27.031 123.7 27.031 124.25ZM135.5 126.113C128.231 128.85 118.938 133.75 121.016 133.75C121.841 133.75 124.629 132.625 127.212 131.25C132.318 128.532 133 128.334 133 129.566C133 130.015 131.2 131.393 129 132.63C124.84 134.968 123.725 136.161 126.75 135.037C131.887 133.128 145.375 123.702 142.827 123.802C142.097 123.831 138.8 124.871 135.5 126.113ZM63.638 141.5C62.324 143.563 61.642 145.4 62.124 145.583C62.606 145.767 63 146.644 63 147.533C63 148.602 63.336 148.814 63.991 148.159C64.943 147.207 67.118 137.75 66.385 137.75C66.189 137.75 64.953 139.438 63.638 141.5ZM91.5 167.301L87.5 168.698L91.5 168.108C93.7 167.783 97.75 167.176 100.5 166.759L105.5 166L100.5 165.952C97.75 165.925 93.7 166.532 91.5 167.301ZM101 168.943C94.675 169.34 87.25 170.042 84.5 170.502C79.456 171.346 67.901 176.884 69.837 177.529C70.411 177.72 76.137 176.698 82.56 175.258C88.984 173.817 95.198 172.73 96.37 172.843C97.541 172.955 99.175 172.757 100 172.402C102.872 171.167 111.04 170.006 111.511 170.767C111.94 171.461 107.65 172.512 102.5 172.975C101.4 173.074 99.936 173.709 99.246 174.385C98.556 175.062 96.866 175.412 95.49 175.162C93.149 174.738 84.697 176.344 75.5 178.961L71.5 180.099L74.5 180.789C81.124 182.313 95.127 180.809 103.972 177.624C108.663 175.935 115.875 173.589 120 172.411L127.5 170.268L121.081 169.551C117.55 169.157 114.175 168.696 113.581 168.527C112.986 168.359 107.325 168.546 101 168.943Z" fill="white"/>
<path d="M11.26 15.2183L28.576 55.0763H29.59L45.814 17.5583V42.9863C45.814 45.0663 45.71 46.6783 45.502 47.8223C45.346 48.9663 45.008 49.8503 44.488 50.4743C44.02 51.0983 43.318 51.5403 42.382 51.8003C41.446 52.0083 40.12 52.1123 38.404 52.1123V53.7503H59.464V52.1123C57.748 52.1123 56.396 52.0083 55.408 51.8003C54.472 51.5403 53.744 51.0983 53.224 50.4743C52.756 49.8503 52.418 48.9663 52.21 47.8223C52.054 46.6783 51.976 45.0663 51.976 42.9863V17.6363C51.976 15.5563 52.054 13.9443 52.21 12.8003C52.418 11.6563 52.756 10.7983 53.224 10.2263C53.744 9.60232 54.472 9.18632 55.408 8.97832C56.396 8.71832 57.748 8.58832 59.464 8.58832V6.95032H47.218L30.76 44.9363L14.224 6.95032H0.963989V8.58832C2.67999 8.58832 4.00599 8.71832 4.94199 8.97832C5.87799 9.18632 6.57999 9.60232 7.04799 10.2263C7.56799 10.7983 7.90599 11.6563 8.06199 12.8003C8.26999 13.9443 8.37399 15.5563 8.37399 17.6363V42.9863C8.37399 45.0663 8.26999 46.6783 8.06199 47.8223C7.90599 48.9663 7.56799 49.8503 7.04799 50.4743C6.57999 51.0983 5.87799 51.5403 4.94199 51.8003C4.00599 52.0083 2.67999 52.1123 0.963989 52.1123V53.7503H18.748V52.1123C17.032 52.1123 15.706 52.0083 14.77 51.8003C13.834 51.5403 13.106 51.0983 12.586 50.4743C12.066 49.8503 11.702 48.9663 11.494 47.8223C11.338 46.6263 11.26 45.0143 11.26 42.9863V15.2183Z" fill="white"/>
<path d="M173.508 183.488C171.924 183.488 170.67 183.048 169.746 182.168C168.822 181.288 168.36 180.298 168.36 179.198C168.36 178.582 168.14 178.054 167.7 177.614C167.26 177.174 166.732 176.954 166.116 176.954C165.456 176.954 164.906 177.174 164.466 177.614C164.026 178.054 163.806 178.582 163.806 179.198C163.806 180.166 164.114 181.046 164.73 181.838C165.346 182.63 166.138 183.29 167.106 183.818C168.074 184.346 169.13 184.742 170.274 185.006C171.418 185.314 172.496 185.468 173.508 185.468C174.916 185.468 176.28 185.27 177.6 184.874C178.964 184.522 180.196 183.906 181.296 183.026C182.44 182.146 183.342 180.914 184.002 179.33C184.706 177.79 185.058 175.898 185.058 173.654V140.192C185.058 138.432 185.124 137.068 185.256 136.1C185.432 135.132 185.718 134.406 186.114 133.922C186.554 133.394 187.17 133.042 187.962 132.866C188.754 132.646 189.876 132.536 191.328 132.536V131.15H173.508V132.536C174.96 132.536 176.082 132.646 176.874 132.866C177.666 133.042 178.26 133.394 178.656 133.922C179.096 134.406 179.382 135.132 179.514 136.1C179.69 137.068 179.778 138.432 179.778 140.192V174.38C179.778 177.46 179.228 179.748 178.128 181.244C177.072 182.74 175.532 183.488 173.508 183.488Z" fill="white"/>
</svg>
